<svg width="32" height="32" viewBox="0 0 32 32" fill="none" xmlns="http://www.w3.org/2000/svg">
  <rect width="32" height="32" rx="8" fill="#111111"/>
  <path d="M8 10V22H12V16H15L18 22H22L18.5 15C20.5 14.5 21.5 13 21.5 11.5C21.5 9.5 20 8 17 8H8V10ZM12 14V11H17C18 11 18.5 11.2 18.5 12.5C18.5 13.8 18 14 17 14H12Z" fill="white"/>
  <path fill-rule="evenodd" clip-rule="evenodd" d="M23.5 21.5C23.5 22.3284 22.8284 23 22 23C21.1716 23 20.5 22.3284 20.5 21.5C20.5 20.6716 21.1716 20 22 20C22.8284 20 23.5 20.6716 23.5 21.5ZM26 10.5C26 11.3284 25.3284 12 24.5 12C23.6716 12 23 11.3284 23 10.5C23 9.67157 23.6716 9 24.5 9C25.3284 9 26 9.67157 26 10.5Z" fill="#333333"/>
  <path d="M24 24L28 28" stroke="#333333" stroke-width="2" stroke-linecap="round"/>
</svg>
