<svg xmlns="http://www.w3.org/2000/svg" viewBox="0 0 120 60" fill="none">
  <path d="M20 15V45H28V34H35L40 45H49L43 32C47 30 49 27 49 23C49 18 45 15 40 15H20ZM28 22H39C41 22 42 23 42 25C42 27 41 28 39 28H28V22Z" fill="currentColor"/>
  <path d="M65 15C56 15 53 22 53 30C53 38 56 45 65 45C74 45 77 38 77 30C77 22 74 15 65 15ZM65 38C61 38 60 35 60 30C60 25 61 22 65 22C69 22 70 25 70 30C70 35 69 38 65 38Z" fill="currentColor"/>
  <path d="M88 15L95 26L102 15H111L100 30L111 45H102L95 34L88 45H79L90 30L79 15H88Z" fill="currentColor"/>
</svg>
